PathFileType	3	(X/Y/Z)	D:\minhoCalibration\240510\subject2_KPNP\preferred\preferred03.trc
DataRate	CameraRate	NumFrames	NumMarkers	Units	OrigDataRate	OrigDataStartFrame	OrigNumFrames
200.0	200.0	33	10	mm	200.0	327	186	
Frame#	Time	Left_Ankle_Outer1			Left_Ankle_Inner1			Left_Knee_Outer1			Left_Knee_Inner1			Left_Wrist1			Right_Wrist1			Right_Knee_Inner1			Right_Knee_Outer1			Right_Ankle_Inner1			Right_Ankle_Outer1			
		X1	Y1	Z1	X2	Y2	Z2	X3	Y3	Z3	X4	Y4	Z4	X5	Y5	Z5	X6	Y6	Z6	X7	Y7	Z7	X8	Y8	Z8	X9	Y9	Z9	X10	Y10	Z10	
327	1.625	-563.68817	92.56694	-760.5954	-572.81299	103.28417	-706.33142	-355.96106	498.10812	-809.24731	-386.6434	489.59613	-716.27545	-385.41205	969.94281	-898.25659	-581.48633	1093.6666	-637.81049	-702.7738	718.16217	-315.12869	-756.61206	808.56848	-319.74387	-831.15289	661.15186	-712.66016	-901.36133	731.06866	-699.53015
328	1.63	-564.40613	93.033691	-759.40436	-571.83899	103.35739	-706.50903	-356.71951	498.97955	-813.31482	-384.32892	489.60904	-719.0509	-390.21689	968.9184	-901.95813	-573.15167	1098.3953	-634.45404	-683.03571	730.35046	-300.02386	-734.73419	822.96136	-300.60812	-832.46014	678.53436	-691.32037	-898.72357	750.16547	-674.66211
329	1.635	-565.20685	93.852715	-758.43829	-571.44293	104.39716	-704.76349	-357.88675	499.2298	-817.41437	-382.42432	489.42581	-721.98169	-395.52408	967.72284	-905.36615	-564.98773	1102.9482	-631.45477	-662.58057	743.14233	-284.02481	-712.05707	837.62964	-282.194	-834.03491	695.02411	-665.65552	-896.41235	769.23132	-648.76929
330	1.64	-565.84741	94.357018	-756.68555	-571.24384	106.1084	-701.90497	-358.82404	499.58441	-821.50787	-379.79532	489.41605	-725.10071	-401.12323	966.37213	-908.64282	-557.03094	1107.3325	-628.84381	-641.26794	755.96515	-270.35309	-687.30261	851.76709	-267.15903	-835.52173	711.64325	-640.95404	-894.95074	788.55573	-618.74866
331	1.645	-566.58679	95.412178	-755.40271	-570.12256	106.35312	-701.70679	-360.0275	499.67996	-825.46265	-377.08942	489.11221	-728.25183	-407.44226	964.77692	-911.03839	-549.20618	1111.6355	-626.65704	-619.07825	769.29791	-257.78268	-661.28754	866.18579	-253.81247	-837.16101	727.76416	-614.84143	-890.92859	806.69934	-593.065
332	1.65	-566.93512	96.278854	-753.32538	-569.13885	107.85444	-699.58734	-361.31372	499.84738	-829.3194	-374.18967	488.76797	-731.55505	-413.92862	963.1601	-913.37634	-541.45135	1115.7246	-624.76746	-596.43628	782.34058	-245.94972	-635.07635	880.81122	-240.55482	-838.3009	743.4176	-588.51367	-887.77045	824.56879	-564.26599
333	1.655	-567.11304	97.515732	-751.5495	-568.37604	110.71959	-695.15643	-362.60898	500.11932	-833.16656	-371.29672	488.48697	-734.9574	-421.78336	960.68304	-914.35132	-533.67834	1119.8684	-622.89294	-573.69312	795.50482	-235.1895	-606.73236	896.15717	-230.78027	-840.71979	757.6991	-559.65869	-884.01721	842.36017	-535.01434
334	1.66	-567.08429	98.728249	-749.68152	-567.12231	111.23593	-694.55682	-364.46005	500.39948	-836.45312	-368.47012	488.42676	-738.44727	-428.94693	959.02881	-916.11908	-526.0589	1123.8561	-621.50836	-550.5733	808.71674	-226.09808	-579.00446	910.04559	-222.47115	-843.39044	772.38342	-528.39282	-880.48022	859.70746	-502.55753
335	1.665	-566.74963	99.706284	-747.70221	-565.60461	111.7142	-694.26276	-366.35925	500.91565	-839.56561	-366.0173	488.61597	-741.90021	-437.04437	956.73547	-916.75476	-518.89862	1127.6003	-620.89154	-527.3114	821.94427	-218.69022	-551.86102	924.09143	-214.76987	-843.63708	787.37091	-497.08542	-875.90594	876.40088	-470.38568
336	1.67	-566.64722	101.1677	-746.22601	-564.53125	113.02152	-692.54553	-368.51199	501.57089	-842.10455	-364.00186	489.08539	-745.13171	-445.26431	954.44611	-917.28778	-511.82532	1131.0096	-620.16168	-504.16965	835.02112	-212.60451	-524.48315	937.63959	-209.90598	-843.40765	801.55786	-463.5665	-870.42389	892.57111	-437.3858
337	1.675	-566.45508	102.24829	-744.6767	-563.33069	114.3154	-691.30206	-370.65829	502.49701	-844.19922	-362.53238	489.8912	-748.00696	-453.84097	952.00671	-916.82812	-504.9274	1134.2151	-619.8689	-481.17841	848.05731	-207.82373	-497.59741	950.5343	-206.66148	-842.16028	815.93726	-427.4921	-864.08057	908.66547	-402.23557
338	1.68	-566.09393	103.11172	-743.09485	-562.40027	115.54869	-689.77771	-373.08582	503.49808	-845.69177	-361.77097	490.9819	-750.30426	-462.07773	949.96783	-916.46545	-497.77438	1137.135	-619.54352	-458.81329	860.66016	-204.75021	-471.82416	962.94379	-205.17747	-839.60217	830.01239	-388.93161	-856.67218	924.1156	-364.82501
339	1.685	-565.99957	104.05319	-741.90033	-561.72552	116.33881	-688.68402	-375.4783	504.68646	-846.737	-361.89743	492.33698	-751.85504	-470.46115	947.81299	-915.98633	-491.35422	1139.8202	-619.83514	-436.90451	872.90387	-202.91185	-446.81052	974.35498	-205.93852	-834.58234	844.21021	-349.02255	-847.11505	939.68915	-327.22052
340	1.69	-566.05426	104.80802	-740.80566	-560.763	117.6863	-687.31714	-378.29102	505.62323	-847.14624	-362.65424	493.55002	-752.67419	-478.8241	945.75916	-914.41248	-485.34985	1142.2399	-620.54059	-415.67175	884.66644	-202.35582	-423.13855	984.88403	-208.27354	-826.95337	857.78613	-306.84705	-835.6236	954.40387	-287.88507
341	1.695	-566.32373	105.49896	-739.7356	-560.61719	118.72026	-685.50952	-380.93292	506.59186	-847.50629	-364.09424	494.98242	-752.84528	-486.81277	943.888	-912.95807	-479.38626	1144.4313	-621.4043	-395.70862	895.98486	-202.99312	-401.31259	994.66901	-211.94133	-816.67871	872.17236	-262.85742	-822.01575	969.73407	-247.09236
342	1.7	-566.76184	105.76759	-738.58521	-560.56506	118.993	-684.33087	-383.13593	508.25565	-847.38654	-366.04404	496.29218	-752.45007	-494.56357	942.24365	-910.78424	-473.64252	1146.3032	-622.42358	-377.16049	906.32129	-204.64511	-381.74753	1003.1856	-216.42465	-802.99188	886.0365	-217.87862	-805.44531	984.30585	-205.33496
343	1.705	-567.36456	105.80881	-737.39331	-561.24933	118.77483	-683.34357	-386.22495	509.25494	-846.34137	-368.53424	497.42383	-751.41968	-501.90665	940.60059	-908.45416	-468.41278	1147.9401	-623.63562	-360.14316	915.77771	-207.24533	-363.58871	1011.0131	-222.36717	-786.01154	900.04401	-171.30589	-785.84918	998.91144	-162.83563
344	1.71	-568.05511	105.67237	-735.8772	-562.03247	118.56011	-681.39819	-388.66525	510.63211	-845.54956	-371.36734	498.38123	-749.87201	-508.73505	939.03735	-905.6452	-463.59482	1149.4421	-624.96637	-345.1575	924.18488	-210.68318	-348.37994	1017.8132	-228.21986	-765.21838	914.01526	-124.4725	-762.74506	1013.2495	-119.43134
345	1.715	-568.83698	105.38532	-734.30347	-562.88507	117.13178	-681.87231	-391.23398	511.75876	-844.35651	-374.31973	499.12997	-747.95819	-514.58386	937.72522	-903.32825	-459.46649	1150.8201	-626.30371	-332.24219	931.52502	-214.64766	-335.64291	1023.8923	-234.06584	-739.51636	928.27747	-78.636086	-735.88159	1027.601	-75.86657
346	1.72	-569.73132	105.06337	-732.565	-562.18005	119.73229	-675.34894	-394.73672	512.56378	-841.91248	-377.56775	499.65671	-745.53632	-519.77203	936.63904	-900.15021	-456.11047	1152.2047	-627.49017	-321.80051	937.89264	-218.71353	-325.62332	1029.1561	-239.37334	-710.20276	942.02802	-34.65337	-705.27466	1041.3651	-33.662304
347	1.725	-570.65295	104.75231	-730.51111	-563.15942	116.71568	-676.99878	-397.71414	513.3783	-839.75513	-380.75668	500.08713	-742.80829	-523.81519	935.83807	-897.55939	-453.4841	1153.3739	-628.7832	-314.02954	943.49518	-222.72244	-317.98062	1033.853	-244.10196	-677.20929	955.49866	7.5421124	-670.77679	1054.7794	7.3539801
348	1.73	-571.58075	104.52668	-728.23871	-563.87305	116.12588	-674.76581	-400.65137	514.02557	-837.36017	-383.91718	500.29773	-739.80908	-527.03503	935.17151	-895.15186	-450.90341	1154.7258	-630.47961	-309.04044	948.47089	-226.5013	-312.98492	1037.4315	-247.84628	-640.68384	968.89789	47.366776	-631.94257	1068.025	46.05875
349	1.735	-572.55334	104.41866	-725.65753	-563.90662	116.68291	-671.04816	-403.26245	514.34753	-834.81757	-386.7536	500.58478	-736.83063	-529.53778	934.66705	-892.80646	-449.41833	1156.1316	-631.23102	-306.86148	952.96606	-229.76802	-310.07239	1040.7053	-250.66075	-600.69086	981.78394	83.946487	-588.71948	1080.5469	81.625717
350	1.74	-573.31903	104.45557	-722.84161	-564.23474	117.40112	-666.98529	-405.70795	514.65918	-832.13159	-389.41418	500.87744	-733.771	-531.18555	934.44019	-890.60303	-448.4783	1157.4958	-631.65851	-307.54938	956.89148	-232.60838	-309.83438	1043.2441	-252.38046	-557.50067	993.39838	116.76553	-541.56506	1091.5717	112.93439
351	1.745	-574.19055	104.69488	-719.92621	-564.60046	117.64126	-663.4621	-407.8642	514.84564	-829.302	-391.99985	501.24915	-730.63794	-532.36285	934.2887	-888.49945	-447.93979	1158.8529	-631.69452	-311.25623	961.03528	-234.47592	-311.52136	1045.668	-253.62555	-509.14978	1005.4775	145.91269	-491.5437	1102.0508	139.43216
352	1.75	-574.95764	104.81751	-716.97302	-565.09839	115.64165	-663.59326	-409.48138	515.16699	-826.84344	-394.12949	501.70453	-727.75983	-532.85876	934.54541	-886.02728	-447.67435	1160.3271	-631.29639	-316.76056	965.10736	-234.5278	-315.42502	1048.1837	-253.63509	-456.40125	1014.5191	168.28923	-439.17041	1110.2838	158.78246
353	1.755	-575.46539	105.22238	-713.88458	-563.86548	117.63075	-658.75403	-410.7428	515.73511	-824.34875	-395.93677	502.27045	-725.073	-532.6488	934.9917	-884.13556	-447.63394	1162.0465	-630.31042	-324.12708	969.35437	-232.49872	-321.11847	1052.6771	-252.47917	-401.73422	1020.4814	182.50024	-385.72311	1116.2885	170.41231
354	1.76	-575.84796	105.69372	-711.06323	-564.25903	117.36246	-656.43878	-412.57187	516.15002	-821.58197	-397.40805	502.89453	-722.5509	-531.77643	935.61273	-881.84979	-447.83896	1164.0227	-628.69415	-330.41116	973.50043	-229.46996	-325.81708	1060.7999	-250.98616	-349.5351	1024.8064	185.64552	-336.69122	1118.6185	171.6291
355	1.765	-576.20874	106.5923	-708.79712	-563.93054	118.21657	-653.63397	-414.27979	516.59296	-818.97681	-398.58817	503.56348	-720.11603	-530.40009	936.42834	-879.11316	-448.20721	1166.132	-626.4765	-333.69501	976.87183	-226.14775	-328.79639	1068.5846	-247.4046	-324.88385	1027.7169	181.75314	-308.54794	1121.098	165.12346
356	1.77	-576.46887	107.26376	-706.58771	-563.46271	119.11592	-650.88794	-415.45648	517.48193	-816.66595	-399.42023	504.28897	-717.76465	-528.79126	937.302	-876.12854	-448.70474	1168.1672	-624.12488	-324.86124	980.90405	-224.29684	-318.38428	1072.931	-247.2377	-325.65833	1029.9106	180.64125	-301.25217	1122.903	165.75082
357	1.775	-576.62817	107.86467	-704.83655	-562.80151	118.93611	-650.32788	-416.93243	518.14282	-814.06976	-399.86041	504.89569	-715.51886	-527.6109	938.16113	-873.09503	-449.35666	1169.7144	-621.84302	-309.15906	983.92236	-226.66458	-304.36783	1074.0214	-247.76479	-333.66006	1031.9757	180.37952	-306.52173	1124.786	167.70784
358	1.78	-576.60187	108.43567	-703.25323	-563.20166	119.16927	-648.30713	-418.05151	519.13074	-811.27985	-399.85443	505.47354	-713.34906	-526.98468	938.52008	-870.36853	-450.14734	1170.894	-619.64917	-297.2951	984.33038	-230.47095	-290.84152	1072.854	-251.61186	-342.88159	1029.9357	178.52936	-313.99622	1123.5663	167.91718
359	1.785	-576.36078	109.04267	-701.93268	-563.00049	120.2246	-645.80835	-418.80933	519.90546	-808.41803	-399.62759	506.02145	-711.10834	-525.99609	939.63239	-867.67871	-451.23459	1171.835	-617.31732	-289.96396	985.69	-233.32857	-280.01566	1069.4139	-251.80489	-350.78433	1027.5415	176.18127	-322.48288	1120.726	168.03836
